# xmcd
# 
# Track frame offsets:
#     150
#     22105
#     45540
#     70658
#     92470
#     113513
#     135218
#     159468
#     183920
#     204555
#     229265
#     251723
#     274783
# 
# Disc length: 3916
# 
# Revision: 1
# Processed by: cddbd v1.5.2PL0 Copyright (c) Steve Scherf et al.
# Submitted via: BonkEnc v1.0
# 
DISCID=a50f4a0d
DTITLE=Hikaru Utada - Distance
DYEAR=2001
DGENRE=New Age
TTITLE0=Wait and See -risk-
TTITLE1=Can You Keep A Secret?
TTITLE2=DISTANCE
TTITLE3=Sunglass
TTITLE4=Drama
TTITLE5=Eternally
TTITLE6=Addicted To You [UP-IN-HEAVEN MIX]
TTITLE7=For You
TTITLE8=Kettobase!
TTITLE9=Parody
TTITLE10=Time Limit
TTITLE11=Kotobani naranai kimochi
TTITLE12=HAYATOCHI-REMIX (Bonus Track)
EXTD=YEAR: 2001
EXTT0=
EXTT1=
EXTT2=
EXTT3=
EXTT4=
EXTT5=
EXTT6=
EXTT7=
EXTT8=
EXTT9=
EXTT10=
EXTT11=
EXTT12=
PLAYORDER=
